<svg xmlns="http://www.w3.org/2000/svg" xmlns:xlink="http://www.w3.org/1999/xlink" width="500" zoomAndPan="magnify" viewBox="0 0 375 374.999991" height="500" preserveAspectRatio="xMidYMid meet" version="1.0"><defs><clipPath id="ec694de60a"><path d="M 39 130 L 241 130 L 241 337.5 L 39 337.5 Z M 39 130 " clip-rule="nonzero"/></clipPath><clipPath id="ce805eb5aa"><path d="M 145 37.5 L 336.75 37.5 L 336.75 290 L 145 290 Z M 145 37.5 " clip-rule="nonzero"/></clipPath></defs><g clip-path="url(#ec694de60a)"><path fill="#282828" d="M 230.910156 314.03125 L 230.957031 314.03125 Z M 74.019531 140.644531 C 72.140625 140.644531 70.375 141.484375 68.472656 143.152344 C 68.273438 143.34375 65.761719 145.71875 63.890625 147.496094 L 61.773438 149.5 C 52.238281 158.402344 47.910156 174.488281 50.761719 190.464844 C 51.695312 195.65625 53.183594 201.027344 55.199219 206.433594 C 65.398438 233.789062 84.769531 257.589844 99.226562 272.734375 C 113.613281 287.980469 136.378906 308.582031 163.171875 320.214844 C 168.484375 322.519531 173.777344 324.292969 178.902344 325.492188 C 194.726562 329.199219 211.03125 325.738281 220.457031 316.691406 L 221.726562 315.492188 C 223.523438 313.792969 226.71875 310.773438 227.1875 310.324219 C 232.824219 304.527344 229.886719 299.589844 218.238281 287.746094 L 215.253906 284.691406 C 207.765625 276.933594 195.246094 263.960938 184.746094 265.1875 C 181.960938 265.511719 178.976562 267.597656 175.808594 269.804688 C 172.585938 272.050781 169.25 274.378906 165.207031 275.65625 C 154.402344 279.066406 143.441406 276.832031 134.351562 269.34375 C 128.996094 264.9375 123.527344 259.761719 118.542969 254.386719 C 113.527344 249.222656 108.648438 243.496094 104.519531 237.90625 C 97.519531 228.433594 95.859375 217.378906 99.851562 206.789062 C 101.351562 202.832031 103.851562 199.625 106.273438 196.53125 C 108.648438 193.492188 110.890625 190.625 111.367188 187.863281 C 113.167969 177.464844 100.847656 164.265625 93.488281 156.378906 L 90.601562 153.25 C 82.855469 144.789062 78.179688 140.644531 74.019531 140.644531 Z M 191.675781 337.449219 C 186.296875 337.449219 181.117188 336.796875 176.503906 335.71875 C 170.765625 334.378906 164.871094 332.402344 158.984375 329.847656 C 130.546875 317.503906 106.640625 295.90625 91.597656 279.960938 C 76.480469 264.121094 56.164062 239.121094 45.347656 210.097656 C 43.109375 204.105469 41.453125 198.121094 40.414062 192.308594 C 37.652344 176.878906 39.933594 155.507812 54.609375 141.8125 L 56.652344 139.878906 C 58.667969 137.96875 61.398438 135.382812 61.515625 135.277344 C 76.433594 122.199219 89.625 136.617188 98.363281 146.160156 L 101.179688 149.214844 C 109.871094 158.53125 124.417969 174.117188 121.730469 189.652344 C 120.804688 195.007812 117.488281 199.25 114.5625 202.996094 C 112.535156 205.582031 110.625 208.03125 109.691406 210.488281 C 106.964844 217.742188 108.097656 225.066406 112.976562 231.667969 C 116.835938 236.886719 121.398438 242.246094 126.171875 247.164062 C 130.929688 252.285156 136.042969 257.121094 141.039062 261.238281 C 147.378906 266.460938 154.640625 267.980469 162.035156 265.640625 C 164.546875 264.847656 167.097656 263.070312 169.792969 261.191406 C 173.6875 258.472656 178.105469 255.390625 183.507812 254.753906 C 199.191406 252.917969 213.980469 268.242188 222.824219 277.40625 L 225.734375 280.386719 C 234.808594 289.605469 248.515625 303.535156 234.683594 317.691406 C 234.679688 317.691406 234.679688 317.691406 234.679688 317.691406 C 234.679688 317.695312 234.675781 317.699219 234.667969 317.707031 C 234.394531 317.972656 230.894531 321.285156 228.953125 323.125 L 227.730469 324.277344 C 217.636719 333.972656 204.117188 337.449219 191.675781 337.449219 " fill-opacity="1" fill-rule="nonzero"/></g><path fill="#282828" d="M 143.902344 192.308594 C 143.875 190.71875 143.847656 189.371094 143.824219 188.28125 C 143.796875 187.1875 143.78125 186.027344 143.78125 184.792969 C 143.78125 183.558594 143.796875 181.917969 143.824219 179.859375 C 143.953125 175.621094 144.980469 172.039062 146.910156 169.109375 C 148.839844 166.183594 151.679688 163.699219 155.4375 161.671875 L 160.566406 158.898438 C 162.367188 157.917969 163.523438 156.746094 164.023438 155.371094 C 164.519531 153.996094 164.808594 152.707031 164.890625 151.5 C 164.992188 150.109375 165.046875 148.605469 165.0625 146.988281 C 165.074219 145.371094 165.042969 143.855469 164.964844 142.441406 C 164.785156 139.667969 162.921875 138.28125 159.371094 138.28125 C 157.574219 138.28125 156.273438 138.640625 155.476562 139.359375 C 154.679688 140.078125 154.25 141.015625 154.203125 142.171875 C 154.152344 144.175781 154.109375 146.039062 154.085938 147.761719 C 154.058594 149.480469 154.109375 151.359375 154.238281 153.386719 L 143.976562 153.386719 C 143.902344 151.664062 143.84375 150.042969 143.800781 148.511719 C 143.765625 146.984375 143.773438 145.554688 143.824219 144.214844 C 144.03125 139.101562 145.34375 135.441406 147.777344 133.234375 C 150.210938 131.027344 154.074219 129.921875 159.371094 129.921875 C 164.976562 129.921875 168.984375 131.027344 171.390625 133.234375 C 173.792969 135.441406 175.097656 139.101562 175.304688 144.214844 C 175.40625 146.785156 175.40625 149.210938 175.304688 151.5 C 175.152344 155.613281 174.097656 158.917969 172.144531 161.421875 C 170.1875 163.925781 167.644531 166.039062 164.5 167.761719 L 158.679688 170.921875 C 157.03125 171.824219 155.890625 173.164062 155.261719 174.945312 C 154.628906 176.730469 154.316406 178.371094 154.316406 179.859375 L 154.316406 183.328125 L 174.570312 183.328125 L 174.570312 192.308594 L 143.902344 192.308594 " fill-opacity="1" fill-rule="nonzero"/><path fill="#282828" d="M 188.152344 167.183594 L 196.871094 167.183594 L 198.222656 152.464844 L 199.417969 139.628906 L 197.257812 139.628906 L 193.25 152.464844 Z M 196.871094 192.308594 L 196.871094 176.085938 L 178.199219 176.085938 L 178.199219 167.648438 L 192.785156 130.652344 L 206.597656 130.652344 L 206.597656 167.183594 L 213.386719 167.183594 L 213.386719 176.085938 L 206.597656 176.085938 L 206.597656 192.308594 L 196.871094 192.308594 " fill-opacity="1" fill-rule="nonzero"/><path fill="#282828" d="M 254.089844 192.308594 L 271.796875 139.628906 L 249.730469 139.628906 L 249.730469 130.652344 L 282.132812 130.652344 L 282.132812 139.859375 L 264.851562 192.308594 L 254.089844 192.308594 " fill-opacity="1" fill-rule="nonzero"/><path fill="#282828" d="M 227.132812 199.21875 L 245.824219 126.082031 L 235.796875 126.082031 L 217.097656 199.21875 L 227.132812 199.21875 " fill-opacity="1" fill-rule="nonzero"/><path fill="#282828" d="M 92.304688 123.878906 C 91.621094 123.878906 90.925781 123.742188 90.253906 123.460938 C 87.582031 122.332031 86.332031 119.25 87.46875 116.578125 C 88.648438 113.792969 89.914062 111.0625 91.285156 108.382812 C 92.59375 105.800781 95.753906 104.761719 98.355469 106.085938 C 100.941406 107.402344 101.96875 110.5625 100.652344 113.152344 C 99.402344 115.605469 98.230469 118.117188 97.144531 120.675781 C 96.300781 122.675781 94.351562 123.878906 92.304688 123.878906 " fill-opacity="1" fill-rule="nonzero"/><path fill="#282828" d="M 104.644531 101.496094 C 103.609375 101.496094 102.566406 101.191406 101.652344 100.558594 C 99.265625 98.910156 98.675781 95.636719 100.328125 93.25 C 102.246094 90.492188 104.304688 87.769531 106.445312 85.148438 C 108.28125 82.898438 111.589844 82.5625 113.839844 84.394531 C 116.089844 86.230469 116.425781 89.535156 114.589844 91.78125 C 112.621094 94.191406 110.730469 96.707031 108.972656 99.238281 C 107.949219 100.707031 106.3125 101.496094 104.644531 101.496094 " fill-opacity="1" fill-rule="nonzero"/><path fill="#282828" d="M 124.277344 79.378906 C 122.824219 79.378906 121.386719 78.785156 120.34375 77.617188 C 118.414062 75.449219 118.609375 72.128906 120.78125 70.203125 C 123.6875 67.617188 126.746094 65.136719 129.867188 62.828125 C 132.195312 61.101562 135.484375 61.59375 137.21875 63.925781 C 138.945312 66.257812 138.453125 69.546875 136.121094 71.273438 C 133.253906 73.386719 130.445312 75.671875 127.769531 78.050781 C 126.765625 78.941406 125.519531 79.378906 124.277344 79.378906 " fill-opacity="1" fill-rule="nonzero"/><g clip-path="url(#ce805eb5aa)"><path fill="#282828" d="M 248.175781 289.628906 C 246.765625 289.628906 245.386719 289.066406 244.382812 288.007812 C 242.953125 286.523438 242.527344 284.34375 243.292969 282.429688 L 252 260.664062 C 253.074219 257.964844 256.140625 256.660156 258.835938 257.734375 C 261.53125 258.808594 262.839844 261.863281 261.765625 264.558594 L 257.648438 274.84375 C 299.101562 255.410156 326.203125 213.484375 326.203125 167.023438 C 326.203125 101.371094 272.722656 47.953125 206.988281 47.953125 C 188.214844 47.953125 170.246094 52.1875 153.59375 60.535156 C 150.992188 61.839844 147.835938 60.789062 146.535156 58.199219 C 145.234375 55.609375 146.28125 52.449219 148.878906 51.152344 C 167.007812 42.058594 186.558594 37.453125 206.988281 37.453125 C 278.523438 37.453125 336.71875 95.578125 336.71875 167.023438 C 336.71875 222.003906 301.832031 271.15625 249.914062 289.335938 C 249.347656 289.53125 248.761719 289.628906 248.175781 289.628906 " fill-opacity="1" fill-rule="nonzero"/></g><path fill="#282828" d="M 270.199219 296.363281 C 269.683594 296.363281 269.171875 296.285156 268.65625 296.132812 L 246.636719 289.398438 C 243.859375 288.550781 242.300781 285.613281 243.152344 282.84375 C 244 280.070312 246.960938 278.511719 249.714844 279.355469 L 271.734375 286.085938 C 274.511719 286.9375 276.070312 289.871094 275.21875 292.644531 C 274.527344 294.90625 272.445312 296.363281 270.199219 296.363281 " fill-opacity="1" fill-rule="nonzero"/></svg>