<svg xmlns="http://www.w3.org/2000/svg" xmlns:xlink="http://www.w3.org/1999/xlink" width="500" zoomAndPan="magnify" viewBox="0 0 375 374.999991" height="500" preserveAspectRatio="xMidYMid meet" version="1.0"><defs><clipPath id="075fcfbab9"><path d="M 94.449219 72.625 L 180 72.625 L 180 194 L 94.449219 194 Z M 94.449219 72.625 " clip-rule="nonzero"/></clipPath></defs><path fill="#000000" d="M 275.496094 130.320312 C 278.851562 128.894531 280.417969 125.019531 278.988281 121.664062 C 277.5625 118.308594 273.683594 116.742188 270.328125 118.171875 L 200.492188 147.835938 L 173.964844 147.835938 C 173.339844 150.164062 172.464844 152.410156 171.59375 154.632812 C 168.828125 161.691406 166.214844 168.359375 173.09375 176.375 C 180.167969 184.621094 181.195312 191.390625 180.480469 196.074219 C 180.617188 196.539062 180.695312 197.03125 180.695312 197.539062 L 180.695312 218.167969 C 180.695312 221.035156 178.363281 223.367188 175.496094 223.367188 L 162.847656 223.367188 L 158.9375 290.832031 C 158.613281 296.460938 162.910156 301.28125 168.539062 301.605469 C 174.164062 301.933594 178.992188 297.640625 179.316406 292.011719 L 183.664062 217.019531 L 188.449219 217.019531 L 192.796875 292.011719 C 193.121094 297.640625 197.949219 301.933594 203.578125 301.605469 C 209.203125 301.28125 213.503906 296.460938 213.175781 290.832031 L 208.386719 208.167969 L 208.386719 158.828125 Z M 190.40625 166.613281 L 201.6875 166.613281 L 201.6875 170.1875 L 190.40625 170.1875 Z M 190.40625 166.613281 " fill-opacity="1" fill-rule="nonzero"/><g clip-path="url(#075fcfbab9)"><path fill="#000000" d="M 123.390625 116.289062 C 122.175781 116.203125 120.917969 116.449219 119.769531 117.078125 C 116.566406 118.824219 115.390625 122.832031 117.136719 126.03125 L 119.320312 130.03125 L 116.703125 138.871094 L 118.878906 139.515625 L 120.855469 132.84375 L 138.464844 165.089844 C 139.65625 167.269531 141.914062 168.527344 144.265625 168.527344 C 145.136719 168.527344 146.023438 168.355469 146.875 167.988281 C 151.183594 166.132812 158.164062 163.527344 163.730469 162.109375 L 163.730469 192.34375 L 175.496094 192.34375 C 176.894531 192.34375 178.160156 192.902344 179.097656 193.800781 C 179.152344 189.679688 177.582031 184.144531 171.839844 177.453125 C 164.320312 168.679688 167.238281 161.234375 170.058594 154.03125 C 170.855469 152 171.65625 149.949219 172.246094 147.835938 L 170.109375 147.835938 C 169.792969 147.835938 169.480469 147.867188 169.171875 147.914062 C 162.714844 148.140625 153.269531 151.320312 147.246094 153.613281 L 128.730469 119.707031 C 128.003906 118.378906 126.886719 117.402344 125.597656 116.835938 L 138.453125 73.453125 L 136.277344 72.808594 L 135.792969 74.441406 C 132.644531 74.859375 108.515625 78.3125 94.449219 87.941406 C 116.421875 87.148438 120.929688 97.039062 128.910156 97.671875 Z M 123.390625 116.289062 " fill-opacity="1" fill-rule="nonzero"/></g><path fill="#000000" d="M 187.347656 145.9375 C 188.84375 145.9375 190.34375 145.78125 191.824219 145.480469 C 192.179688 145.917969 192.777344 146.121094 193.347656 145.941406 L 197.542969 144.609375 L 198.328125 144.359375 C 198.53125 144.292969 198.707031 144.183594 198.851562 144.050781 C 199.242188 143.6875 199.417969 143.125 199.246094 142.585938 C 199.097656 142.121094 198.726562 141.785156 198.285156 141.660156 C 198.027344 141.585938 197.75 141.585938 197.476562 141.671875 L 192.492188 143.253906 C 192.035156 143.398438 191.707031 143.757812 191.574219 144.183594 C 190.175781 144.46875 188.757812 144.617188 187.347656 144.617188 C 180.601562 144.617188 174.390625 141.339844 170.460938 136.179688 C 168.660156 133.820312 167.335938 131.066406 166.660156 128.050781 C 166.65625 128.035156 166.652344 128.019531 166.652344 128.003906 C 166.804688 128.003906 166.964844 128.003906 167.121094 128.003906 C 166.703125 121.976562 175.65625 117.210938 185.125 115.085938 C 194.59375 112.960938 204.726562 113.449219 206.925781 119.078125 C 214.171875 115.636719 218.484375 111.832031 217.804688 108.792969 C 217 105.21875 209.492188 103.632812 199.085938 104.277344 C 194.992188 96.800781 187.59375 92.457031 180.40625 94.066406 C 173.21875 95.679688 168.386719 102.765625 167.878906 111.273438 C 158.195312 115.136719 152.085938 119.773438 152.890625 123.347656 C 153.519531 126.152344 158.265625 127.730469 165.296875 127.972656 C 165.320312 128.097656 165.34375 128.222656 165.371094 128.339844 C 166.5 133.359375 169.316406 137.695312 173.128906 140.8125 C 173.675781 141.257812 174.238281 141.6875 174.824219 142.082031 C 178.449219 144.523438 182.78125 145.9375 187.347656 145.9375 Z M 187.347656 145.9375 " fill-opacity="1" fill-rule="nonzero"/><path fill="#000000" d="M 169.101562 128.503906 C 171.347656 138.511719 181.28125 144.800781 191.292969 142.554688 C 201.304688 140.3125 207.597656 130.382812 205.351562 120.378906 C 203.105469 110.371094 166.855469 118.5 169.101562 128.503906 Z M 181.730469 131.695312 C 181.730469 131.695312 193.308594 132.957031 200.074219 127.878906 C 200.074219 127.878906 193.941406 143.6875 181.730469 131.695312 Z M 181.730469 131.695312 " fill-opacity="1" fill-rule="nonzero"/><path fill="#000000" d="M 175.496094 194.242188 L 161.460938 194.242188 C 159.644531 194.242188 158.15625 195.726562 158.15625 197.542969 L 158.15625 218.167969 C 158.15625 219.984375 159.644531 221.46875 161.460938 221.46875 L 175.496094 221.46875 C 177.308594 221.46875 178.796875 219.984375 178.796875 218.167969 L 178.796875 197.542969 C 178.796875 195.726562 177.308594 194.242188 175.496094 194.242188 Z M 170.136719 217.703125 L 170.136719 215.339844 L 172.195312 215.339844 L 172.195312 216.816406 C 171.566406 217.214844 170.875 217.515625 170.136719 217.703125 Z M 166.632812 215.339844 L 166.632812 217.703125 C 165.894531 217.515625 165.203125 217.214844 164.574219 216.816406 L 164.574219 215.339844 Z M 164.574219 214.621094 L 164.574219 212.5625 L 166.632812 212.5625 L 166.632812 214.621094 Z M 161.265625 210.8125 C 161.265625 210.460938 161.296875 210.121094 161.347656 209.78125 L 163.851562 209.78125 L 163.851562 211.839844 L 161.347656 211.839844 C 161.296875 211.503906 161.265625 211.164062 161.265625 210.8125 Z M 166.632812 207.003906 L 166.632812 209.0625 L 164.574219 209.0625 L 164.574219 207.003906 Z M 164.574219 206.28125 L 164.574219 204.804688 C 165.203125 204.410156 165.894531 204.109375 166.632812 203.921875 L 166.632812 206.28125 Z M 172.195312 207.003906 L 172.195312 209.0625 L 170.136719 209.0625 L 170.136719 207.003906 Z M 170.136719 206.28125 L 170.136719 203.921875 C 170.875 204.109375 171.566406 204.410156 172.195312 204.804688 L 172.195312 206.28125 Z M 167.355469 209.785156 L 169.414062 209.785156 L 169.414062 211.839844 L 167.355469 211.839844 Z M 166.632812 211.839844 L 164.574219 211.839844 L 164.574219 209.785156 L 166.632812 209.785156 Z M 170.136719 209.785156 L 172.195312 209.785156 L 172.195312 211.839844 L 170.136719 211.839844 Z M 169.414062 209.0625 L 167.355469 209.0625 L 167.355469 207.003906 L 169.414062 207.003906 Z M 163.851562 209.0625 L 161.488281 209.0625 C 161.675781 208.324219 161.976562 207.628906 162.375 207.003906 L 163.851562 207.003906 Z M 163.851562 212.5625 L 163.851562 214.621094 L 162.375 214.621094 C 161.976562 213.992188 161.675781 213.300781 161.488281 212.5625 Z M 167.355469 212.5625 L 169.414062 212.5625 L 169.414062 214.621094 L 167.355469 214.621094 Z M 170.136719 212.5625 L 172.195312 212.5625 L 172.195312 214.621094 L 170.136719 214.621094 Z M 172.917969 215.339844 L 173.875 215.339844 C 173.589844 215.691406 173.265625 216.011719 172.917969 216.300781 Z M 174.394531 214.621094 L 172.917969 214.621094 L 172.917969 212.5625 L 175.28125 212.5625 C 175.09375 213.300781 174.792969 213.992188 174.394531 214.621094 Z M 175.503906 210.8125 C 175.503906 211.160156 175.472656 211.503906 175.421875 211.839844 L 172.917969 211.839844 L 172.917969 209.785156 L 175.421875 209.785156 C 175.472656 210.121094 175.503906 210.460938 175.503906 210.8125 Z M 175.28125 209.0625 L 172.917969 209.0625 L 172.917969 207.003906 L 174.394531 207.003906 C 174.792969 207.628906 175.09375 208.324219 175.28125 209.0625 Z M 173.875 206.28125 L 172.917969 206.28125 L 172.917969 205.324219 C 173.265625 205.613281 173.589844 205.933594 173.875 206.28125 Z M 169.414062 203.777344 L 169.414062 206.28125 L 167.355469 206.28125 L 167.355469 203.777344 C 167.691406 203.730469 168.035156 203.695312 168.386719 203.695312 C 168.734375 203.695312 169.078125 203.730469 169.414062 203.777344 Z M 163.851562 205.324219 L 163.851562 206.28125 L 162.894531 206.28125 C 163.183594 205.933594 163.503906 205.613281 163.851562 205.324219 Z M 162.894531 215.339844 L 163.851562 215.339844 L 163.851562 216.300781 C 163.503906 216.011719 163.183594 215.691406 162.894531 215.339844 Z M 167.355469 217.84375 L 167.355469 215.339844 L 169.414062 215.339844 L 169.414062 217.84375 C 169.078125 217.894531 168.734375 217.929688 168.382812 217.929688 C 168.035156 217.929688 167.691406 217.894531 167.355469 217.84375 Z M 167.355469 217.84375 " fill-opacity="1" fill-rule="nonzero"/></svg>