<svg xmlns="http://www.w3.org/2000/svg" xmlns:xlink="http://www.w3.org/1999/xlink" width="500" zoomAndPan="magnify" viewBox="0 0 375 374.999991" height="500" preserveAspectRatio="xMidYMid meet" version="1.0"><defs><clipPath id="id1"><path d="M 82.367188 85.425781 L 292.367188 85.425781 L 292.367188 288 L 82.367188 288 Z M 82.367188 85.425781 " clip-rule="nonzero"/></clipPath></defs><g clip-path="url(#id1)"><path fill="#000000" d="M 254.402344 160.4375 C 256.625 164.289062 258.558594 167.648438 259.878906 170.113281 C 260.175781 170.6875 260.644531 171.179688 261.261719 171.503906 C 262.894531 172.375 264.921875 171.757812 265.792969 170.128906 C 267.097656 167.679688 269.027344 164.335938 271.242188 160.492188 C 279.628906 145.929688 292.03125 124.390625 292.03125 114.636719 C 292.03125 106.585938 288.765625 99.28125 283.480469 93.996094 L 283.464844 93.980469 C 278.183594 88.695312 270.890625 85.425781 262.835938 85.425781 C 254.785156 85.425781 247.488281 88.695312 242.207031 93.980469 L 242.191406 93.996094 C 236.910156 99.28125 233.640625 106.578125 233.640625 114.636719 C 233.648438 124.421875 246.015625 145.878906 254.402344 160.4375 Z M 246.941406 98.730469 C 251.007812 94.671875 256.625 92.15625 262.835938 92.15625 C 269.050781 92.15625 274.664062 94.671875 278.734375 98.730469 C 282.792969 102.796875 285.308594 108.421875 285.308594 114.636719 C 285.308594 122.648438 273.453125 143.234375 265.4375 157.152344 L 262.835938 161.679688 L 260.207031 157.101562 C 252.183594 143.183594 240.367188 122.671875 240.367188 114.636719 C 240.367188 108.421875 242.882812 102.796875 246.941406 98.730469 Z M 272.125 123.0625 C 274.5 120.683594 275.972656 117.398438 275.972656 113.773438 C 275.972656 110.148438 274.503906 106.863281 272.125 104.488281 C 269.75 102.109375 266.464844 100.636719 262.835938 100.636719 C 259.214844 100.636719 255.929688 102.105469 253.550781 104.488281 C 251.175781 106.863281 249.707031 110.148438 249.707031 113.773438 C 249.707031 117.398438 251.175781 120.683594 253.550781 123.0625 C 255.921875 125.4375 259.207031 126.910156 262.835938 126.910156 C 266.464844 126.90625 269.75 125.4375 272.125 123.0625 Z M 256.429688 113.769531 C 256.429688 112 257.148438 110.394531 258.308594 109.238281 C 259.464844 108.082031 261.070312 107.359375 262.84375 107.359375 C 264.609375 107.359375 266.214844 108.074219 267.375 109.238281 C 268.53125 110.394531 269.253906 112 269.253906 113.769531 C 269.253906 115.535156 268.535156 117.144531 267.375 118.300781 C 266.21875 119.457031 264.613281 120.179688 262.84375 120.179688 C 261.074219 120.179688 259.46875 119.460938 258.308594 118.300781 C 257.148438 117.144531 256.429688 115.535156 256.429688 113.769531 Z M 180.628906 122.574219 C 185.636719 122.574219 190.195312 120.574219 193.542969 117.328125 L 193.753906 117.132812 C 197.109375 113.773438 199.191406 109.128906 199.191406 104 C 199.191406 98.894531 197.113281 94.257812 193.753906 90.878906 L 193.738281 90.863281 C 190.375 87.503906 185.734375 85.425781 180.628906 85.425781 C 175.503906 85.425781 170.859375 87.507812 167.507812 90.871094 C 164.144531 94.242188 162.0625 98.882812 162.0625 104 C 162.0625 109.128906 164.144531 113.773438 167.5 117.132812 C 170.859375 120.492188 175.503906 122.574219 180.628906 122.574219 Z M 172.246094 95.625 L 172.261719 95.625 C 174.40625 93.484375 177.363281 92.15625 180.632812 92.15625 C 183.910156 92.15625 186.871094 93.476562 189.003906 95.613281 C 189.003906 95.613281 189.019531 95.628906 189.019531 95.628906 C 191.152344 97.761719 192.472656 100.726562 192.472656 104.003906 C 192.472656 107.277344 191.144531 110.242188 189.003906 112.382812 L 188.851562 112.542969 C 186.734375 114.589844 183.832031 115.851562 180.632812 115.851562 C 177.363281 115.851562 174.398438 114.523438 172.261719 112.382812 C 170.117188 110.242188 168.792969 107.277344 168.792969 104.003906 C 168.789062 100.71875 170.109375 97.757812 172.246094 95.625 Z M 180.628906 85.425781 Z M 286.269531 171.996094 C 263.792969 195.105469 248.996094 206.398438 234.1875 213.351562 L 215.375 173.175781 C 217.765625 172.859375 219.9375 171.828125 221.605469 170.242188 L 221.824219 170.039062 C 223.84375 168.019531 225.097656 165.226562 225.097656 162.160156 C 225.097656 159.089844 223.84375 156.300781 221.824219 154.28125 C 219.816406 152.273438 217.023438 151.019531 213.949219 151.015625 L 192.980469 150.996094 L 174.472656 128.667969 C 173.675781 127.769531 171.867188 126.292969 169.992188 125.164062 C 168.53125 124.285156 166.921875 123.53125 165.472656 123.234375 C 162.214844 122.140625 158.847656 122.085938 155.734375 122.886719 L 155.867188 122.53125 C 156.582031 120.589844 156.441406 118.53125 155.625 116.773438 C 154.816406 115.015625 153.339844 113.558594 151.394531 112.84375 L 131.054688 105.320312 C 130.914062 105.253906 130.761719 105.199219 130.605469 105.15625 C 128.738281 104.539062 126.78125 104.703125 125.101562 105.480469 C 123.425781 106.253906 122.027344 107.632812 121.28125 109.445312 C 121.210938 109.59375 121.15625 109.746094 121.105469 109.902344 L 101.960938 161.714844 C 101.246094 163.65625 101.386719 165.722656 102.199219 167.476562 C 103.003906 169.230469 104.484375 170.683594 106.433594 171.398438 L 126.972656 178.996094 C 127.167969 179.066406 127.363281 179.050781 127.554688 179.085938 C 126.023438 183.636719 126.195312 187.707031 127.757812 191.214844 C 129.4375 194.988281 132.648438 197.96875 136.894531 200.140625 L 137.09375 200.238281 L 137.09375 225.59375 L 115.605469 250.453125 C 108.496094 254.050781 102.222656 258.246094 96.8125 263.476562 C 91.363281 268.742188 86.808594 275.023438 83.175781 282.761719 C 82.390625 284.433594 83.117188 286.433594 84.789062 287.214844 C 86.464844 287.996094 88.460938 287.269531 89.238281 285.597656 C 92.503906 278.652344 96.578125 273.019531 101.449219 268.308594 C 102.800781 267.007812 104.230469 265.78125 105.707031 264.605469 C 105.59375 265.398438 105.542969 266.199219 105.601562 266.996094 C 105.800781 269.742188 107.015625 272.425781 109.183594 274.414062 C 109.335938 274.570312 109.5 274.714844 109.671875 274.832031 C 111.949219 276.691406 114.769531 277.503906 117.503906 277.304688 C 120.347656 277.097656 123.121094 275.808594 125.128906 273.484375 L 150 244.71875 L 157.628906 242.460938 L 167.265625 239.652344 C 169.996094 238.867188 172.3125 238.210938 174.597656 237.582031 C 175.660156 237.289062 176.730469 237 177.859375 236.695312 L 181.714844 257.125 C 181.882812 258.003906 182.167969 258.824219 182.527344 259.601562 C 181.988281 259.273438 181.355469 259.042969 180.554688 259.085938 C 180.320312 259.109375 180.136719 259.136719 179.90625 259.195312 C 177.714844 259.78125 175.503906 260.410156 173.34375 261.089844 C 169.5 262.304688 170.625 268.074219 174.753906 267.640625 C 174.953125 267.609375 175.125 267.578125 175.320312 267.519531 C 177.40625 266.859375 179.558594 266.253906 181.671875 265.683594 C 183.507812 265.195312 184.257812 263.585938 184.089844 262.074219 C 184.769531 262.898438 185.523438 263.65625 186.394531 264.253906 C 188.683594 265.820312 191.554688 266.535156 194.480469 266.054688 C 194.65625 266.035156 194.839844 266.003906 195.011719 265.949219 C 197.90625 265.328125 200.304688 263.609375 201.863281 261.335938 C 201.976562 261.167969 202.050781 260.980469 202.152344 260.804688 L 207.207031 259.714844 C 211.066406 258.902344 210.566406 253.0625 206.445312 253.0625 C 206.207031 253.074219 206.019531 253.089844 205.789062 253.140625 L 203.667969 253.601562 C 203.640625 253.398438 203.652344 253.199219 203.613281 252.996094 L 199.515625 231.261719 C 211.585938 228.324219 221.457031 225.855469 230.90625 222.121094 L 238.285156 237.875 C 239.070312 239.546875 241.0625 240.277344 242.734375 239.492188 C 244.410156 238.707031 245.136719 236.710938 244.351562 235.039062 L 237.066406 219.476562 C 252.457031 212.285156 267.789062 200.609375 291.082031 176.660156 C 292.371094 175.328125 292.339844 173.207031 291.019531 171.917969 C 289.679688 170.640625 287.554688 170.667969 286.269531 171.996094 Z M 108.746094 165.101562 C 108.542969 165.027344 108.378906 164.867188 108.289062 164.671875 C 108.203125 164.484375 108.191406 164.253906 108.269531 164.035156 L 127.488281 112.015625 C 127.566406 111.816406 127.71875 111.660156 127.898438 111.578125 L 127.910156 111.578125 C 128.097656 111.488281 128.328125 111.472656 128.542969 111.554688 L 149.085938 119.152344 C 149.292969 119.230469 149.457031 119.386719 149.539062 119.570312 L 149.539062 119.582031 C 149.628906 119.773438 149.644531 120.003906 149.566406 120.21875 L 146.167969 129.417969 C 145.195312 130.734375 144.335938 132.160156 143.753906 133.777344 L 129.710938 172.964844 C 129.5625 172.878906 129.449219 172.761719 129.285156 172.703125 Z M 120.066406 269.109375 C 119.277344 270.027344 118.171875 270.53125 117.039062 270.617188 C 115.898438 270.699219 114.726562 270.355469 113.8125 269.566406 L 113.78125 269.539062 C 112.886719 268.75 112.386719 267.65625 112.300781 266.535156 C 112.21875 265.394531 112.5625 264.222656 113.351562 263.308594 L 142.980469 229.035156 C 143.53125 228.402344 143.796875 227.621094 143.808594 226.84375 L 143.808594 203.089844 L 152.640625 206.789062 C 152.601562 214.457031 152.398438 222.417969 152.667969 229.957031 C 152.644531 230.414062 152.550781 230.875 152.382812 231.316406 C 152.207031 231.789062 151.945312 232.238281 151.597656 232.636719 Z M 172.839844 231.128906 C 170.664062 231.726562 168.316406 232.394531 165.429688 233.226562 L 157.804688 235.441406 C 158.144531 234.871094 158.433594 234.28125 158.660156 233.679688 C 159.09375 232.527344 159.324219 231.316406 159.363281 230.097656 C 159.695312 223.601562 159.515625 216.453125 159.425781 209.632812 L 173.890625 215.695312 L 176.609375 230.113281 C 175.386719 230.433594 174.148438 230.769531 172.839844 231.128906 Z M 193.484375 259.425781 L 193.4375 259.4375 C 192.261719 259.644531 191.097656 259.355469 190.171875 258.722656 C 189.230469 258.082031 188.535156 257.085938 188.308594 255.894531 L 180.15625 212.664062 C 179.941406 211.507812 179.152344 210.605469 178.148438 210.1875 L 157.367188 201.480469 C 157.347656 201.46875 157.324219 201.464844 157.304688 201.453125 L 141.792969 194.957031 C 141.773438 194.945312 141.753906 194.9375 141.730469 194.929688 L 139.921875 194.171875 C 137.03125 192.691406 134.902344 190.785156 133.882812 188.488281 C 132.960938 186.421875 132.910156 183.898438 133.976562 180.917969 L 150.0625 136.03125 C 151.039062 133.308594 153.046875 131.226562 155.5 130.070312 C 157.953125 128.914062 160.839844 128.683594 163.558594 129.660156 C 163.742188 129.726562 163.925781 129.773438 164.113281 129.804688 L 164.113281 129.816406 C 164.71875 129.921875 165.617188 130.371094 166.527344 130.917969 C 167.804688 131.6875 168.914062 132.535156 169.382812 133.03125 L 188.8125 156.488281 C 189.527344 157.351562 190.589844 157.769531 191.628906 157.695312 L 213.953125 157.722656 C 215.15625 157.722656 216.265625 158.230469 217.074219 159.042969 C 217.875 159.84375 218.378906 160.953125 218.378906 162.164062 C 218.378906 163.378906 217.878906 164.488281 217.074219 165.289062 L 216.949219 165.425781 C 216.160156 166.148438 215.109375 166.59375 213.953125 166.59375 L 213.953125 166.609375 L 187.695312 166.609375 C 187.085938 166.597656 186.46875 166.460938 185.902344 166.199219 C 185.363281 165.953125 184.867188 165.59375 184.453125 165.125 L 165.992188 144.324219 C 164.765625 142.9375 162.648438 142.8125 161.261719 144.035156 C 159.878906 145.261719 159.75 147.378906 160.976562 148.765625 L 165.925781 154.34375 L 154.714844 185.632812 C 154.128906 187.265625 154.894531 189.058594 156.425781 189.785156 L 184.429688 203.195312 C 185.5625 203.828125 186.515625 204.4375 187.148438 205.085938 C 187.617188 205.566406 187.949219 206.132812 188.085938 206.863281 L 197.027344 254.257812 C 197.25 255.453125 196.964844 256.636719 196.324219 257.578125 C 195.671875 258.503906 194.679688 259.199219 193.484375 259.425781 Z M 198.265625 224.671875 L 194.667969 205.613281 C 194.261719 203.441406 193.308594 201.78125 191.941406 200.390625 C 190.746094 199.160156 189.3125 198.226562 187.695312 197.332031 L 162.027344 185.035156 L 170.984375 160.042969 L 179.433594 169.558594 C 180.492188 170.746094 181.75 171.660156 183.109375 172.285156 C 184.523438 172.929688 186.050781 173.273438 187.582031 173.292969 L 208.027344 173.292969 L 228.015625 215.984375 C 219.050781 219.519531 209.660156 221.902344 198.265625 224.671875 Z M 163.007812 271.964844 C 160.902344 272.859375 158.988281 273.859375 156.9375 274.84375 C 152.800781 276.457031 150.382812 270.714844 154.035156 268.78125 C 156.113281 267.703125 158.398438 266.550781 160.566406 265.699219 C 164.65625 264.34375 166.925781 270.222656 163.007812 271.964844 Z M 283.386719 230.699219 C 281.625 232.269531 279.757812 233.726562 277.851562 235.101562 C 277.582031 235.285156 277.378906 235.390625 277.085938 235.507812 C 273.144531 236.824219 270.910156 231.710938 273.949219 229.625 C 275.667969 228.398438 277.359375 227.070312 278.9375 225.664062 C 282.25 222.789062 286.6875 227.636719 283.386719 230.699219 Z M 226.964844 255.300781 C 224.769531 255.832031 222.570312 256.328125 220.371094 256.839844 C 220.148438 256.886719 219.96875 256.910156 219.738281 256.925781 C 215.484375 256.925781 215.125 251.074219 218.882812 250.285156 C 221.054688 249.78125 223.21875 249.289062 225.382812 248.765625 C 229.78125 247.835938 231.234375 254.175781 226.964844 255.300781 Z M 248.972656 246.46875 C 249.058594 248.023438 248.117188 249.378906 246.648438 249.871094 C 244.472656 250.550781 242.308594 251.222656 240.117188 251.859375 C 239.632812 251.984375 239.347656 252 238.84375 251.976562 C 235.074219 251.554688 234.828125 246.296875 238.253906 245.398438 C 240.378906 244.773438 242.472656 244.132812 244.585938 243.46875 C 246.664062 242.769531 248.855469 244.300781 248.972656 246.46875 Z M 146.757812 281.808594 C 145.230469 283.171875 143.800781 284.664062 142.527344 286.269531 C 142.40625 286.417969 142.285156 286.546875 142.144531 286.679688 C 138.933594 289.429688 134.777344 285.191406 137.261719 282.089844 C 138.773438 280.1875 140.449219 278.421875 142.265625 276.800781 C 142.484375 276.597656 142.714844 276.457031 142.980469 276.308594 C 146.605469 274.605469 149.597656 279.171875 146.757812 281.808594 Z M 265.828125 242.234375 C 263.757812 243.257812 261.660156 244.210938 259.53125 245.117188 C 255.347656 246.742188 252.890625 240.710938 256.921875 238.914062 C 258.925781 238.058594 260.898438 237.167969 262.851562 236.199219 C 263.695312 235.753906 264.671875 235.765625 265.550781 236.078125 C 268.285156 237.203125 268.457031 240.839844 265.828125 242.234375 Z M 265.828125 242.234375 " fill-opacity="1" fill-rule="nonzero"/></g></svg>