<svg xmlns="http://www.w3.org/2000/svg" xmlns:xlink="http://www.w3.org/1999/xlink" width="500" zoomAndPan="magnify" viewBox="0 0 375 374.999991" height="500" preserveAspectRatio="xMidYMid meet" version="1.0"><defs><clipPath id="id1"><path d="M 87 98 L 288 98 L 288 281.355469 L 87 281.355469 Z M 87 98 " clip-rule="nonzero"/></clipPath></defs><g clip-path="url(#id1)"><path fill="#000000" d="M 213.324219 218.457031 C 215.226562 218.589844 217.171875 219.484375 219.210938 221.539062 L 268.070312 270.769531 L 248.175781 270.769531 Z M 167.753906 179.769531 C 169.535156 179.6875 171.617188 180.292969 173.691406 181.386719 C 182 185.75 185.796875 188.726562 187.675781 192.398438 C 189.871094 196.65625 190.269531 203.570312 190.269531 215.773438 C 190.242188 216.410156 190.3125 217 190.417969 217.546875 L 173.703125 227.222656 C 168.136719 230.441406 164.421875 231.84375 158.363281 232.136719 C 160.523438 215.691406 161.492188 203.023438 162.304688 186.761719 C 162.535156 181.945312 164.757812 179.90625 167.753906 179.769531 Z M 199.15625 110.863281 L 208.117188 111.171875 C 207.996094 111.371094 207.859375 111.570312 207.742188 111.8125 C 204.441406 119.0625 200.007812 123 194.984375 125.546875 C 197.183594 121.757812 198.6875 117.015625 199.15625 110.863281 Z M 245.230469 98.753906 C 243.949219 98.753906 242.929688 99.503906 242.929688 100.4375 L 242.929688 101.011719 L 187.078125 102.464844 C 180.777344 102.628906 181.03125 110.277344 187.078125 110.476562 L 192.710938 110.664062 C 191.164062 118.445312 187.53125 122.449219 183.230469 125.703125 C 180.765625 127.574219 175.464844 130.351562 171.84375 130.429688 L 154.546875 130.78125 C 150.761719 130.859375 147.847656 134.128906 148.339844 137.894531 C 151.578125 162.28125 150.9375 192.78125 145.875 231.066406 C 145.808594 231.453125 145.808594 231.828125 145.808594 232.203125 L 142.507812 232.203125 C 132.078125 232.203125 129.429688 234.324219 121.316406 242.066406 L 88.261719 273.652344 C 86.082031 275.734375 86.851562 281.300781 90.742188 281.300781 L 284.367188 281.300781 C 287.285156 281.300781 288.695312 276.601562 285.78125 273.652344 L 224.417969 211.820312 C 221.257812 208.644531 217.515625 207.308594 213.429688 207.441406 C 210.074219 207.546875 206.476562 208.683594 202.777344 210.527344 C 202.726562 200.957031 202.3125 193.453125 198.820312 186.648438 C 195.171875 179.574219 188.0625 174.6875 177.925781 169.773438 L 177.101562 142.472656 C 195.757812 140.445312 211.207031 129.191406 215.972656 116.363281 C 216.71875 114.386719 216.515625 112.691406 215.878906 111.410156 L 242.929688 112.304688 L 242.929688 112.917969 C 242.929688 113.839844 243.949219 114.585938 245.230469 114.585938 C 246.507812 114.585938 247.53125 113.839844 247.53125 112.917969 L 247.53125 100.4375 C 247.53125 99.503906 246.507812 98.753906 245.230469 98.753906 Z M 245.230469 98.753906 " fill-opacity="1" fill-rule="nonzero"/></g><path fill="#000000" d="M 174.210938 113.226562 C 171.632812 119.847656 164.105469 123.132812 157.40625 120.582031 C 150.722656 118.046875 147.40625 110.609375 149.992188 104.015625 C 152.589844 97.394531 160.097656 94.109375 166.785156 96.644531 C 173.476562 99.195312 176.792969 106.617188 174.210938 113.226562 Z M 174.210938 113.226562 " fill-opacity="1" fill-rule="evenodd"/></svg>