<svg xmlns="http://www.w3.org/2000/svg" xmlns:xlink="http://www.w3.org/1999/xlink" width="500" zoomAndPan="magnify" viewBox="0 0 375 374.999991" height="500" preserveAspectRatio="xMidYMid meet" version="1.0"><defs><clipPath id="id1"><path d="M 146 141 L 229 141 L 229 260.625 L 146 260.625 Z M 146 141 " clip-rule="nonzero"/></clipPath><clipPath id="id2"><path d="M 173 114.375 L 202 114.375 L 202 143 L 173 143 Z M 173 114.375 " clip-rule="nonzero"/></clipPath><clipPath id="id3"><path d="M 113 145 L 176 145 L 176 260.625 L 113 260.625 Z M 113 145 " clip-rule="nonzero"/></clipPath><clipPath id="id4"><path d="M 130 114.375 L 159 114.375 L 159 143 L 130 143 Z M 130 114.375 " clip-rule="nonzero"/></clipPath><clipPath id="id5"><path d="M 199 145 L 262 145 L 262 260.625 L 199 260.625 Z M 199 145 " clip-rule="nonzero"/></clipPath><clipPath id="id6"><path d="M 216 114.375 L 245 114.375 L 245 143 L 216 143 Z M 216 114.375 " clip-rule="nonzero"/></clipPath></defs><path fill="#000000" d="M 132.574219 143.878906 L 142.042969 143.878906 C 137.355469 143.265625 133.351562 140.261719 131 136.347656 L 124.039062 134.84375 C 121.378906 134.289062 118.769531 135.96875 118.210938 138.628906 C 117.65625 141.289062 119.359375 143.886719 122.019531 144.445312 L 126.28125 145.332031 C 128.710938 144.074219 130.859375 143.851562 132.179688 143.8125 C 132.339844 143.804688 132.457031 143.878906 132.574219 143.878906 Z M 132.574219 143.878906 " fill-opacity="1" fill-rule="nonzero"/><g clip-path="url(#id1)"><path fill="#000000" d="M 156.332031 143.878906 C 156.449219 143.878906 156.566406 143.800781 156.683594 143.808594 C 158.644531 143.855469 162.539062 144.4375 166.449219 148.109375 C 174.796875 155.949219 178.238281 173.371094 176.6875 199.925781 C 176.476562 203.496094 173.511719 206.285156 169.9375 206.285156 C 169.800781 206.285156 169.667969 206.273438 169.53125 206.265625 C 169.472656 206.261719 169.417969 206.25 169.359375 206.246094 L 165.625 252.023438 C 165.28125 256.210938 168.398438 259.878906 172.585938 260.21875 C 176.769531 260.558594 180.441406 257.519531 180.78125 253.332031 L 185.351562 197.386719 L 189.65625 197.386719 L 194.226562 253.332031 C 194.566406 257.519531 198.238281 260.597656 202.421875 260.253906 C 206.609375 259.914062 209.726562 256.226562 209.382812 252.042969 L 205.648438 206.25 C 205.589844 206.257812 205.53125 206.261719 205.46875 206.265625 C 205.339844 206.273438 205.203125 206.277344 205.070312 206.277344 C 201.496094 206.277344 198.53125 203.476562 198.320312 199.90625 C 196.769531 173.351562 200.210938 155.910156 208.558594 148.066406 C 212.429688 144.429688 216.292969 143.871094 218.28125 143.8125 C 218.441406 143.800781 218.558594 143.878906 218.675781 143.878906 L 228.144531 143.878906 C 225.6875 143.265625 223.421875 142.484375 221.480469 141.101562 L 199.164062 145.726562 L 175.84375 145.726562 L 153.527344 141.101562 C 151.585938 142.484375 149.320312 143.265625 146.863281 143.878906 Z M 156.332031 143.878906 " fill-opacity="1" fill-rule="nonzero"/></g><path fill="#000000" d="M 232.964844 143.878906 L 242.433594 143.878906 C 242.554688 143.878906 242.667969 143.800781 242.785156 143.808594 C 244.09375 143.839844 246.265625 144.09375 248.726562 145.371094 L 252.988281 144.457031 C 255.648438 143.898438 257.351562 141.277344 256.792969 138.621094 C 256.238281 135.960938 253.628906 134.25 250.96875 134.808594 L 244.007812 136.351562 C 241.65625 140.261719 237.652344 143.265625 232.964844 143.878906 Z M 232.964844 143.878906 " fill-opacity="1" fill-rule="nonzero"/><g clip-path="url(#id2)"><path fill="#000000" d="M 187.503906 142.050781 C 195.148438 142.050781 201.34375 135.855469 201.34375 128.210938 C 201.34375 120.570312 195.148438 114.375 187.503906 114.375 C 179.863281 114.375 173.667969 120.570312 173.667969 128.210938 C 173.667969 135.855469 179.863281 142.050781 187.503906 142.050781 Z M 196.136719 133.425781 C 194.347656 136.5 191.152344 138.261719 187.503906 138.261719 C 183.855469 138.261719 180.660156 136.5 178.871094 133.425781 Z M 196.136719 133.425781 " fill-opacity="1" fill-rule="nonzero"/></g><g clip-path="url(#id3)"><path fill="#000000" d="M 114.0625 199.796875 C 114.214844 202.410156 116.382812 204.429688 118.96875 204.429688 C 119.066406 204.429688 119.164062 204.425781 119.261719 204.417969 C 121.972656 204.261719 124.164062 201.933594 124.003906 199.222656 C 122.738281 177.609375 124.980469 166.089844 128.054688 160.371094 L 128.054688 252.640625 C 128.054688 256.84375 131.238281 260.246094 135.433594 260.246094 C 139.636719 260.246094 142.816406 256.839844 142.816406 252.640625 L 142.816406 197.386719 L 145.890625 197.386719 L 145.890625 252.640625 C 145.890625 256.84375 149.378906 260.246094 153.578125 260.246094 C 157.777344 260.246094 161.265625 256.839844 161.265625 252.640625 L 161.265625 160.375 C 163.726562 166.09375 166.375 177.613281 165.109375 199.222656 C 164.953125 201.933594 166.976562 204.261719 169.691406 204.421875 C 169.789062 204.425781 169.863281 204.429688 169.960938 204.429688 C 172.546875 204.429688 174.703125 202.410156 174.855469 199.796875 C 176.375 173.8125 173.121094 156.859375 165.191406 149.410156 C 161.738281 146.167969 158.363281 145.695312 156.632812 145.65625 C 156.535156 145.648438 156.433594 145.726562 156.332031 145.726562 L 132.574219 145.726562 C 132.46875 145.726562 132.367188 145.648438 132.265625 145.65625 C 130.535156 145.699219 127.167969 146.214844 123.722656 149.453125 C 115.792969 156.902344 112.542969 173.8125 114.0625 199.796875 Z M 114.0625 199.796875 " fill-opacity="1" fill-rule="nonzero"/></g><g clip-path="url(#id4)"><path fill="#000000" d="M 158.292969 128.210938 C 158.292969 120.570312 152.097656 114.375 144.453125 114.375 C 136.8125 114.375 130.617188 120.570312 130.617188 128.210938 C 130.617188 135.855469 136.8125 142.050781 144.453125 142.050781 C 152.097656 142.050781 158.292969 135.855469 158.292969 128.210938 Z M 153.085938 133.425781 C 151.296875 136.5 148.101562 138.261719 144.453125 138.261719 C 140.804688 138.261719 137.609375 136.5 135.820312 133.425781 Z M 153.085938 133.425781 " fill-opacity="1" fill-rule="nonzero"/></g><g clip-path="url(#id5)"><path fill="#000000" d="M 218.367188 145.65625 C 216.636719 145.699219 213.269531 146.214844 209.824219 149.453125 C 201.894531 156.902344 198.644531 173.832031 200.164062 199.816406 C 200.316406 202.429688 202.484375 204.4375 205.070312 204.4375 C 205.167969 204.4375 205.265625 204.429688 205.363281 204.425781 C 208.074219 204.265625 210.265625 201.9375 210.105469 199.222656 C 208.839844 177.613281 211.082031 166.089844 214.15625 160.371094 L 214.15625 252.640625 C 214.15625 256.84375 217.339844 260.246094 221.539062 260.246094 C 225.738281 260.246094 228.917969 256.84375 228.917969 252.640625 L 228.917969 197.386719 L 231.992188 197.386719 L 231.992188 252.640625 C 231.992188 256.84375 235.480469 260.246094 239.679688 260.246094 C 243.878906 260.246094 247.367188 256.84375 247.367188 252.640625 L 247.367188 160.375 C 249.828125 166.09375 252.476562 177.613281 251.210938 199.222656 C 251.054688 201.933594 253.078125 204.261719 255.792969 204.421875 C 255.890625 204.425781 255.964844 204.429688 256.0625 204.429688 C 258.648438 204.429688 260.804688 202.410156 260.957031 199.796875 C 262.476562 173.8125 259.222656 156.859375 251.292969 149.410156 C 247.839844 146.167969 244.464844 145.695312 242.734375 145.65625 C 242.636719 145.648438 242.535156 145.726562 242.433594 145.726562 L 218.675781 145.726562 C 218.570312 145.726562 218.46875 145.648438 218.367188 145.65625 Z M 218.367188 145.65625 " fill-opacity="1" fill-rule="nonzero"/></g><g clip-path="url(#id6)"><path fill="#000000" d="M 244.394531 128.210938 C 244.394531 120.570312 238.199219 114.375 230.554688 114.375 C 222.914062 114.375 216.71875 120.570312 216.71875 128.210938 C 216.71875 135.855469 222.914062 142.050781 230.554688 142.050781 C 238.199219 142.050781 244.394531 135.855469 244.394531 128.210938 Z M 221.921875 133.425781 L 239.1875 133.425781 C 237.398438 136.5 234.203125 138.261719 230.554688 138.261719 C 226.90625 138.261719 223.710938 136.5 221.921875 133.425781 Z M 221.921875 133.425781 " fill-opacity="1" fill-rule="nonzero"/></g></svg>