<svg xmlns="http://www.w3.org/2000/svg" xmlns:xlink="http://www.w3.org/1999/xlink" width="500" zoomAndPan="magnify" viewBox="0 0 375 374.999991" height="500" preserveAspectRatio="xMidYMid meet" version="1.0"><defs><clipPath id="id1"><path d="M 70.078125 93.855469 L 304.828125 93.855469 L 304.828125 281.355469 L 70.078125 281.355469 Z M 70.078125 93.855469 " clip-rule="nonzero"/></clipPath></defs><path fill="#393536" d="M 194.84375 101.648438 L 219.328125 108.152344 C 219.371094 108.164062 219.410156 108.167969 219.453125 108.167969 C 219.671875 108.167969 219.871094 108.023438 219.933594 107.800781 C 220 107.535156 219.84375 107.265625 219.582031 107.195312 L 195.097656 100.691406 C 194.835938 100.625 194.566406 100.78125 194.496094 101.042969 C 194.425781 101.308594 194.582031 101.578125 194.84375 101.648438 " fill-opacity="1" fill-rule="nonzero"/><path fill="#393536" d="M 170.03125 103.835938 C 173.703125 103.835938 176.695312 106.835938 176.695312 110.515625 C 176.695312 114.195312 173.703125 117.191406 170.03125 117.191406 C 166.355469 117.191406 163.363281 114.195312 163.363281 110.515625 C 163.363281 106.835938 166.355469 103.835938 170.03125 103.835938 Z M 170.03125 119.972656 C 175.238281 119.972656 179.472656 115.730469 179.472656 110.515625 C 179.472656 105.300781 175.238281 101.058594 170.03125 101.058594 C 164.824219 101.058594 160.585938 105.300781 160.585938 110.515625 C 160.585938 115.730469 164.824219 119.972656 170.03125 119.972656 " fill-opacity="1" fill-rule="nonzero"/><g clip-path="url(#id1)"><path fill="#393536" d="M 268.164062 276.910156 L 266.839844 274.613281 L 297.046875 274.613281 L 298.371094 276.910156 Z M 262.957031 267.878906 L 281.496094 267.878906 C 282.261719 267.878906 282.882812 267.257812 282.882812 266.488281 C 282.882812 265.71875 282.261719 265.097656 281.496094 265.097656 L 261.355469 265.097656 L 256.972656 257.5 L 263.777344 247.414062 L 273.753906 259.632812 C 274.210938 260.1875 274.90625 260.492188 275.621094 260.441406 C 276.339844 260.394531 276.988281 260 277.363281 259.386719 L 282.984375 250.222656 L 295.441406 271.832031 L 265.238281 271.832031 Z M 233.628906 276.910156 L 165.652344 276.910156 L 162.46875 271.386719 L 242.882812 271.386719 C 243.648438 271.386719 244.269531 270.761719 244.269531 269.996094 C 244.269531 269.226562 243.648438 268.605469 242.882812 268.605469 L 160.863281 268.605469 L 141.34375 234.738281 L 153.925781 212.910156 L 168.035156 235.929688 C 168.414062 236.542969 169.0625 236.933594 169.78125 236.984375 C 170.5 237.027344 171.195312 236.730469 171.648438 236.171875 L 194.933594 207.652344 L 214.191406 236.199219 C 214.582031 236.777344 215.21875 237.140625 215.917969 237.175781 C 215.953125 237.175781 215.992188 237.175781 216.03125 237.175781 C 216.6875 237.175781 217.308594 236.890625 217.734375 236.386719 L 230.742188 220.890625 L 245.765625 246.953125 L 246.382812 248.019531 L 247.046875 249.179688 L 248.332031 251.402344 L 251.808594 257.433594 L 179.59375 257.433594 C 178.828125 257.433594 178.207031 258.054688 178.207031 258.824219 C 178.207031 259.59375 178.828125 260.214844 179.59375 260.214844 L 253.410156 260.214844 L 253.585938 260.519531 L 256.222656 265.097656 L 257.828125 267.878906 L 260.105469 271.832031 L 261.710938 274.613281 L 263.03125 276.910156 Z M 117.03125 276.910156 L 76.476562 276.910156 L 78.707031 273.039062 L 143.457031 273.039062 C 144.222656 273.039062 144.84375 272.414062 144.84375 271.648438 C 144.84375 271.558594 144.835938 271.46875 144.820312 271.386719 C 144.695312 270.742188 144.132812 270.257812 143.457031 270.257812 L 80.3125 270.257812 L 96.96875 241.359375 L 104.609375 253.816406 C 104.984375 254.425781 105.636719 254.820312 106.351562 254.871094 C 107.066406 254.914062 107.765625 254.613281 108.222656 254.058594 L 121.355469 237.96875 L 128.363281 248.355469 L 129.746094 250.402344 L 131.128906 252.453125 L 132.179688 254.007812 C 132.570312 254.585938 133.207031 254.949219 133.902344 254.984375 C 133.941406 254.988281 133.980469 254.988281 134.019531 254.988281 C 134.675781 254.988281 135.296875 254.699219 135.71875 254.195312 L 142.664062 245.921875 L 151.125 260.609375 L 106.644531 260.609375 C 105.878906 260.609375 105.257812 261.230469 105.257812 262 C 105.257812 262.769531 105.878906 263.390625 106.644531 263.390625 L 152.730469 263.390625 L 155.738281 268.605469 L 157.339844 271.386719 L 160.523438 276.910156 Z M 118.5 204.007812 L 136.214844 234.738281 L 138.777344 239.1875 L 140.300781 241.824219 L 134.214844 249.078125 L 133.601562 248.167969 L 132.214844 246.117188 L 130.832031 244.066406 L 123.367188 233 C 122.972656 232.417969 122.328125 232.054688 121.628906 232.023438 C 120.933594 231.992188 120.25 232.292969 119.808594 232.839844 L 106.757812 248.820312 L 99.496094 236.976562 Z M 168.570312 187.503906 L 171.332031 182.710938 L 180.90625 166.097656 L 181.632812 164.84375 L 182.390625 163.523438 L 187.710938 154.296875 L 189.097656 151.886719 L 190.03125 150.269531 L 190.488281 151.058594 L 228.378906 216.789062 L 216.226562 231.265625 L 196.941406 202.6875 C 196.550781 202.101562 195.90625 201.738281 195.203125 201.710938 C 194.503906 201.675781 193.828125 201.980469 193.382812 202.523438 L 170.1875 230.933594 L 156.449219 208.527344 Z M 179.21875 154.347656 L 179.21875 160.128906 L 171.335938 173.804688 L 171.335938 154.347656 Z M 188.644531 126.878906 L 188.644531 144.085938 C 188.558594 144.15625 188.476562 144.234375 188.402344 144.316406 C 187.429688 143.527344 186.199219 143.050781 184.855469 143.050781 L 179.550781 143.050781 L 179.550781 132.46875 C 180.84375 132.140625 182.089844 131.671875 183.273438 131.066406 C 184.957031 130.203125 186.859375 128.886719 188.644531 126.878906 Z M 162.84375 182.65625 L 162.820312 131.289062 C 162.820312 130.628906 162.355469 130.058594 161.710938 129.929688 C 160.378906 129.65625 159.089844 129.207031 157.878906 128.589844 C 154.542969 126.882812 150.183594 123.035156 148.367188 114.402344 C 148.070312 112.992188 148.972656 111.605469 150.378906 111.308594 C 150.558594 111.269531 150.742188 111.25 150.921875 111.25 C 152.144531 111.25 153.21875 112.125 153.472656 113.324219 C 154.546875 118.4375 156.710938 121.945312 159.902344 123.746094 C 160.140625 123.878906 160.402344 124.003906 160.679688 124.117188 C 162.691406 124.933594 165.023438 124.894531 167.117188 124.011719 C 168.855469 123.277344 170.855469 123.292969 172.582031 124.054688 C 174.339844 124.832031 176.339844 124.972656 178.195312 124.460938 C 178.882812 124.269531 179.484375 124.03125 179.992188 123.742188 C 183.183594 121.945312 185.34375 118.4375 186.421875 113.324219 C 186.652344 112.234375 187.5625 111.417969 188.644531 111.28125 C 188.753906 111.265625 188.859375 111.25 188.96875 111.25 C 189.152344 111.25 189.335938 111.269531 189.511719 111.308594 C 190.421875 111.5 191.121094 112.148438 191.421875 112.96875 C 191.585938 113.414062 191.632812 113.90625 191.527344 114.402344 C 191.496094 114.558594 191.453125 114.699219 191.421875 114.851562 C 190.855469 117.371094 190.074219 119.476562 189.160156 121.222656 C 188.992188 121.546875 188.820312 121.851562 188.644531 122.152344 C 186.621094 125.585938 184.113281 127.511719 182.011719 128.589844 C 180.722656 129.246094 179.34375 129.714844 177.910156 129.980469 C 177.25 130.101562 176.773438 130.679688 176.773438 131.347656 L 176.773438 144.445312 C 176.773438 145.210938 177.394531 145.835938 178.160156 145.835938 L 184.855469 145.835938 C 185.675781 145.835938 186.414062 146.183594 186.9375 146.742188 L 181.996094 155.308594 L 181.996094 152.957031 C 181.996094 152.1875 181.375 151.5625 180.609375 151.5625 L 169.945312 151.5625 C 169.179688 151.5625 168.558594 152.1875 168.558594 152.957031 L 168.558594 178.625 L 164.691406 185.332031 C 163.613281 184.921875 162.84375 183.878906 162.84375 182.65625 Z M 191.421875 97.042969 L 231.503906 107.691406 L 193.53125 117.78125 C 193.796875 116.898438 194.035156 115.964844 194.246094 114.976562 C 194.753906 112.542969 193.535156 110.144531 191.421875 109.066406 Z M 266 220.753906 L 280.460938 245.839844 L 275.214844 254.390625 L 265.328125 242.28125 C 264.882812 241.738281 264.210938 241.433594 263.507812 241.46875 C 262.808594 241.5 262.160156 241.863281 261.769531 242.445312 L 254.503906 253.214844 L 250.894531 246.953125 Z M 304.140625 278.023438 L 300.933594 272.460938 L 300.925781 272.441406 L 267.921875 215.191406 C 267.523438 214.5 266.792969 214.078125 266 214.078125 C 265.207031 214.078125 264.472656 214.5 264.074219 215.191406 L 248.332031 242.503906 L 191.957031 144.707031 C 191.816406 144.464844 191.632812 144.257812 191.421875 144.085938 L 191.421875 122.890625 C 191.75 122.289062 192.0625 121.648438 192.359375 120.96875 L 237.277344 109.035156 C 237.886719 108.875 238.308594 108.320312 238.308594 107.691406 C 238.308594 107.058594 237.886719 106.511719 237.277344 106.347656 L 190.390625 93.890625 C 190.378906 93.886719 190.367188 93.890625 190.355469 93.886719 C 190.289062 93.871094 190.222656 93.863281 190.152344 93.855469 C 190.121094 93.855469 190.089844 93.847656 190.054688 93.847656 C 190.046875 93.847656 190.039062 93.84375 190.03125 93.84375 C 189.953125 93.84375 189.875 93.855469 189.796875 93.867188 C 189.785156 93.871094 189.769531 93.871094 189.757812 93.871094 C 189.660156 93.890625 189.566406 93.921875 189.476562 93.964844 C 189.449219 93.972656 189.425781 93.988281 189.402344 94.003906 C 189.339844 94.035156 189.277344 94.070312 189.21875 94.113281 C 189.210938 94.121094 189.195312 94.125 189.1875 94.132812 C 189.167969 94.148438 189.152344 94.167969 189.136719 94.179688 C 189.085938 94.222656 189.042969 94.265625 189 94.3125 C 188.972656 94.34375 188.949219 94.371094 188.925781 94.402344 C 188.890625 94.449219 188.855469 94.503906 188.824219 94.5625 C 188.808594 94.589844 188.789062 94.621094 188.773438 94.652344 C 188.746094 94.71875 188.722656 94.785156 188.703125 94.851562 C 188.695312 94.878906 188.683594 94.90625 188.679688 94.933594 C 188.65625 95.03125 188.644531 95.132812 188.644531 95.234375 L 188.644531 108.484375 C 186.253906 108.632812 184.203125 110.378906 183.703125 112.753906 C 182.800781 117.050781 181.09375 119.929688 178.628906 121.320312 C 178.320312 121.496094 177.925781 121.648438 177.457031 121.78125 C 176.214844 122.125 174.875 122.027344 173.703125 121.511719 C 171.277344 120.441406 168.476562 120.417969 166.039062 121.449219 C 164.632812 122.042969 163.046875 122.078125 161.726562 121.542969 C 161.554688 121.472656 161.398438 121.398438 161.261719 121.320312 C 158.800781 119.929688 157.09375 117.050781 156.1875 112.75 C 155.664062 110.269531 153.449219 108.46875 150.921875 108.46875 C 150.550781 108.46875 150.175781 108.507812 149.808594 108.585938 C 146.902344 109.199219 145.035156 112.066406 145.648438 114.976562 C 147.691406 124.683594 152.742188 129.082031 156.617188 131.066406 C 157.710938 131.625 158.859375 132.066406 160.046875 132.390625 L 160.066406 182.65625 C 160.066406 184.90625 161.390625 186.847656 163.296875 187.753906 L 138.777344 230.285156 L 120.425781 198.445312 C 120.027344 197.757812 119.292969 197.332031 118.5 197.332031 C 117.707031 197.332031 116.972656 197.757812 116.578125 198.445312 L 75.089844 270.414062 C 74.644531 270.648438 74.335938 271.109375 74.335938 271.648438 C 74.335938 271.671875 74.339844 271.691406 74.339844 271.714844 L 70.707031 278.023438 C 70.308594 278.710938 70.308594 279.558594 70.707031 280.246094 C 71.105469 280.933594 71.835938 281.359375 72.632812 281.359375 L 302.214844 281.359375 C 303.011719 281.359375 303.742188 280.933594 304.140625 280.246094 C 304.539062 279.558594 304.539062 278.710938 304.140625 278.023438 " fill-opacity="1" fill-rule="nonzero"/></g><path fill="#393536" d="M 189.59375 165.109375 C 189.976562 164.441406 189.75 163.59375 189.085938 163.210938 C 189.046875 163.183594 189 163.171875 188.957031 163.152344 C 188.34375 162.875 187.621094 163.078125 187.246094 163.640625 C 187.226562 163.667969 187.207031 163.691406 187.1875 163.71875 L 187.179688 163.734375 L 185.738281 166.238281 L 184.882812 167.71875 L 164.191406 203.617188 C 163.808594 204.28125 164.035156 205.132812 164.699219 205.515625 C 164.917969 205.644531 165.15625 205.703125 165.390625 205.703125 C 165.871094 205.703125 166.339844 205.453125 166.59375 205.007812 L 189.519531 165.238281 L 189.59375 165.109375 " fill-opacity="1" fill-rule="nonzero"/><path fill="#393536" d="M 118.714844 212.070312 C 118.050781 211.683594 117.203125 211.914062 116.820312 212.578125 L 102.996094 236.554688 C 102.613281 237.222656 102.84375 238.070312 103.503906 238.457031 C 103.726562 238.582031 103.960938 238.644531 104.199219 238.644531 C 104.675781 238.644531 105.144531 238.390625 105.402344 237.945312 L 119.222656 213.96875 C 119.605469 213.304688 119.378906 212.453125 118.714844 212.070312 " fill-opacity="1" fill-rule="nonzero"/><path fill="#393536" d="M 165.394531 161.667969 C 165.664062 161.667969 165.886719 161.445312 165.886719 161.175781 L 165.886719 132.835938 C 165.886719 132.5625 165.664062 132.34375 165.394531 132.34375 C 165.121094 132.34375 164.898438 132.5625 164.898438 132.835938 L 164.898438 161.175781 C 164.898438 161.445312 165.121094 161.667969 165.394531 161.667969 " fill-opacity="1" fill-rule="nonzero"/></svg>