<svg xmlns="http://www.w3.org/2000/svg" xmlns:xlink="http://www.w3.org/1999/xlink" width="500" zoomAndPan="magnify" viewBox="0 0 375 374.999991" height="500" preserveAspectRatio="xMidYMid meet" version="1.0"><defs><clipPath id="b9449671ad"><path d="M 116 37.5 L 161 37.5 L 161 101 L 116 101 Z M 116 37.5 " clip-rule="nonzero"/></clipPath><clipPath id="a7f0a9a7ed"><path d="M 186 311 L 232 311 L 232 327.75 L 186 327.75 Z M 186 311 " clip-rule="nonzero"/></clipPath><clipPath id="9e5e813e0b"><path d="M 272 134 L 288.378906 134 L 288.378906 154 L 272 154 Z M 272 134 " clip-rule="nonzero"/></clipPath></defs><path fill="#2f2e2e" d="M 138.511719 110.425781 C 150.851562 110.425781 160.855469 106.492188 160.855469 101.640625 C 160.855469 98.117188 155.582031 95.082031 147.972656 93.683594 C 147.25 94.636719 146.550781 95.535156 145.894531 96.371094 C 151.28125 97.199219 154.984375 98.910156 154.984375 100.882812 C 154.984375 103.671875 147.609375 105.933594 138.511719 105.933594 C 129.414062 105.933594 122.039062 103.671875 122.039062 100.882812 C 122.039062 98.910156 125.738281 97.199219 131.128906 96.371094 C 130.46875 95.535156 129.773438 94.636719 129.050781 93.683594 C 121.441406 95.082031 116.167969 98.117188 116.167969 101.640625 C 116.167969 106.492188 126.171875 110.425781 138.511719 110.425781 " fill-opacity="1" fill-rule="nonzero"/><g clip-path="url(#b9449671ad)"><path fill="#2f2e2e" d="M 128.933594 58.882812 C 128.933594 53.59375 133.222656 49.304688 138.511719 49.304688 C 143.800781 49.304688 148.089844 53.59375 148.089844 58.882812 C 148.089844 64.175781 143.800781 68.464844 138.511719 68.464844 C 133.222656 68.464844 128.933594 64.175781 128.933594 58.882812 Z M 160.855469 59.839844 C 160.855469 47.503906 150.851562 37.5 138.511719 37.5 C 126.171875 37.5 116.167969 47.503906 116.167969 59.839844 C 116.167969 76.027344 138.511719 100.695312 138.511719 100.695312 C 138.511719 100.695312 160.855469 76.027344 160.855469 59.839844 " fill-opacity="1" fill-rule="nonzero"/></g><g clip-path="url(#a7f0a9a7ed)"><path fill="#2f2e2e" d="M 218.785156 311.007812 C 218.058594 311.960938 217.367188 312.863281 216.707031 313.695312 C 222.097656 314.523438 225.796875 316.234375 225.796875 318.210938 C 225.796875 321 218.421875 323.261719 209.324219 323.261719 C 200.226562 323.261719 192.851562 321 192.851562 318.210938 C 192.851562 316.234375 196.550781 314.523438 201.941406 313.695312 C 201.285156 312.863281 200.585938 311.960938 199.863281 311.007812 C 192.25 312.40625 186.980469 315.441406 186.980469 318.964844 C 186.980469 323.820312 196.984375 327.75 209.324219 327.75 C 221.664062 327.75 231.667969 323.820312 231.667969 318.964844 C 231.667969 315.441406 226.394531 312.40625 218.785156 311.007812 " fill-opacity="1" fill-rule="nonzero"/></g><path fill="#2f2e2e" d="M 209.324219 285.789062 C 204.035156 285.789062 199.746094 281.5 199.746094 276.210938 C 199.746094 270.917969 204.035156 266.628906 209.324219 266.628906 C 214.617188 266.628906 218.902344 270.917969 218.902344 276.210938 C 218.902344 281.5 214.617188 285.789062 209.324219 285.789062 Z M 209.324219 254.824219 C 196.984375 254.824219 186.980469 264.828125 186.980469 277.167969 C 186.980469 293.351562 209.324219 318.019531 209.324219 318.019531 C 209.324219 318.019531 231.667969 293.351562 231.667969 277.167969 C 231.667969 264.828125 221.664062 254.824219 209.324219 254.824219 " fill-opacity="1" fill-rule="nonzero"/><path fill="#2f2e2e" d="M 180.339844 106.308594 C 178.019531 105.957031 175.652344 105.605469 173.234375 105.261719 C 171.273438 104.96875 169.46875 106.335938 169.1875 108.289062 C 168.90625 110.242188 170.265625 112.054688 172.21875 112.335938 C 174.613281 112.679688 176.964844 113.027344 179.269531 113.375 C 179.449219 113.40625 179.628906 113.417969 179.808594 113.417969 C 181.546875 113.417969 183.070312 112.148438 183.339844 110.378906 C 183.632812 108.425781 182.292969 106.605469 180.339844 106.308594 " fill-opacity="1" fill-rule="nonzero"/><path fill="#2f2e2e" d="M 94.164062 277.226562 C 93.417969 275.402344 91.332031 274.519531 89.507812 275.265625 C 87.675781 276.011719 86.800781 278.101562 87.546875 279.929688 C 89.328125 284.304688 92.613281 288.582031 97.304688 292.632812 C 97.976562 293.214844 98.8125 293.5 99.640625 293.5 C 100.640625 293.5 101.636719 293.082031 102.347656 292.261719 C 103.636719 290.769531 103.472656 288.511719 101.976562 287.21875 C 98.148438 283.914062 95.523438 280.554688 94.164062 277.226562 " fill-opacity="1" fill-rule="nonzero"/><path fill="#2f2e2e" d="M 137.359375 232.648438 C 141.472656 230.703125 145.886719 228.742188 150.480469 226.824219 C 152.304688 226.0625 153.160156 223.96875 152.402344 222.148438 C 151.640625 220.328125 149.542969 219.464844 147.722656 220.226562 C 143.03125 222.1875 138.511719 224.191406 134.300781 226.1875 C 132.519531 227.03125 131.753906 229.164062 132.601562 230.945312 C 133.210938 232.238281 134.496094 232.992188 135.832031 232.992188 C 136.34375 232.992188 136.867188 232.882812 137.359375 232.648438 " fill-opacity="1" fill-rule="nonzero"/><path fill="#2f2e2e" d="M 110.535156 247.191406 C 111.238281 247.191406 111.945312 246.984375 112.5625 246.554688 C 116.105469 244.113281 120.167969 241.621094 124.632812 239.148438 C 126.359375 238.1875 126.984375 236.015625 126.027344 234.285156 C 125.066406 232.558594 122.898438 231.9375 121.164062 232.890625 C 116.5 235.480469 112.234375 238.097656 108.503906 240.671875 C 106.875 241.792969 106.46875 244.023438 107.589844 245.648438 C 108.285156 246.648438 109.398438 247.191406 110.535156 247.191406 " fill-opacity="1" fill-rule="nonzero"/><path fill="#2f2e2e" d="M 126 301.21875 C 121.304688 299.183594 117.042969 297.089844 113.328125 294.996094 C 111.613281 294.027344 109.429688 294.632812 108.457031 296.351562 C 107.488281 298.070312 108.097656 300.25 109.8125 301.21875 C 113.742188 303.4375 118.234375 305.644531 123.15625 307.777344 C 123.617188 307.980469 124.097656 308.074219 124.574219 308.074219 C 125.957031 308.074219 127.269531 307.269531 127.859375 305.921875 C 128.644531 304.109375 127.8125 302.007812 126 301.21875 " fill-opacity="1" fill-rule="nonzero"/><path fill="#2f2e2e" d="M 193.523438 115.667969 C 198.441406 116.503906 203.214844 117.371094 207.710938 118.246094 C 207.941406 118.289062 208.167969 118.3125 208.394531 118.3125 C 210.074219 118.3125 211.570312 117.125 211.898438 115.417969 C 212.277344 113.480469 211.011719 111.605469 209.074219 111.226562 C 204.523438 110.34375 199.695312 109.464844 194.726562 108.617188 C 192.789062 108.289062 190.933594 109.59375 190.601562 111.542969 C 190.269531 113.488281 191.578125 115.335938 193.523438 115.667969 " fill-opacity="1" fill-rule="nonzero"/><path fill="#2f2e2e" d="M 89.621094 267.804688 C 90.058594 267.984375 90.511719 268.066406 90.957031 268.066406 C 92.371094 268.066406 93.710938 267.222656 94.273438 265.828125 C 95.636719 262.445312 98.171875 258.902344 101.804688 255.296875 C 103.207031 253.902344 103.214844 251.640625 101.824219 250.238281 C 100.4375 248.839844 98.175781 248.828125 96.769531 250.21875 C 92.441406 254.511719 89.371094 258.863281 87.640625 263.15625 C 86.902344 264.984375 87.789062 267.070312 89.621094 267.804688 " fill-opacity="1" fill-rule="nonzero"/><g clip-path="url(#9e5e813e0b)"><path fill="#2f2e2e" d="M 287.972656 149.117188 C 287.214844 144.136719 284.097656 139.449219 278.699219 135.179688 C 277.148438 133.957031 274.90625 134.21875 273.675781 135.765625 C 272.453125 137.316406 272.714844 139.5625 274.265625 140.789062 C 278.195312 143.894531 280.425781 147.0625 280.902344 150.191406 C 281.175781 151.960938 282.699219 153.230469 284.433594 153.230469 C 284.613281 153.230469 284.796875 153.21875 284.976562 153.1875 C 286.929688 152.890625 288.269531 151.070312 287.972656 149.117188 " fill-opacity="1" fill-rule="nonzero"/></g><path fill="#2f2e2e" d="M 282.082031 160.097656 C 280.546875 158.859375 278.296875 159.101562 277.054688 160.636719 C 274.722656 163.53125 271.351562 166.589844 267.035156 169.71875 C 265.441406 170.882812 265.082031 173.117188 266.246094 174.714844 C 266.941406 175.675781 268.035156 176.1875 269.140625 176.1875 C 269.867188 176.1875 270.601562 175.96875 271.238281 175.507812 C 276.0625 172.003906 279.894531 168.511719 282.625 165.125 C 283.859375 163.585938 283.621094 161.335938 282.082031 160.097656 " fill-opacity="1" fill-rule="nonzero"/><path fill="#2f2e2e" d="M 237.589844 117.726562 C 233.171875 116.535156 228.390625 115.355469 223.367188 114.21875 C 221.445312 113.78125 219.527344 114.992188 219.09375 116.917969 C 218.660156 118.84375 219.867188 120.757812 221.792969 121.195312 C 226.71875 122.304688 231.402344 123.460938 235.722656 124.628906 C 236.035156 124.714844 236.351562 124.753906 236.660156 124.753906 C 238.234375 124.753906 239.675781 123.703125 240.105469 122.109375 C 240.621094 120.203125 239.496094 118.238281 237.589844 117.726562 " fill-opacity="1" fill-rule="nonzero"/><path fill="#2f2e2e" d="M 152.882812 310.945312 C 148.070312 309.460938 143.492188 307.945312 139.277344 306.433594 C 137.402344 305.765625 135.371094 306.734375 134.703125 308.59375 C 134.039062 310.453125 135.003906 312.5 136.863281 313.167969 C 141.183594 314.710938 145.863281 316.265625 150.773438 317.777344 C 151.125 317.886719 151.480469 317.9375 151.828125 317.9375 C 153.355469 317.9375 154.773438 316.949219 155.246094 315.414062 C 155.828125 313.527344 154.769531 311.527344 152.882812 310.945312 " fill-opacity="1" fill-rule="nonzero"/><path fill="#2f2e2e" d="M 267.269531 132.148438 C 268.097656 130.355469 267.316406 128.230469 265.523438 127.402344 C 261.496094 125.542969 256.839844 123.714844 251.683594 121.96875 C 249.8125 121.339844 247.785156 122.34375 247.152344 124.210938 C 246.519531 126.082031 247.519531 128.109375 249.390625 128.746094 C 254.308594 130.40625 258.730469 132.140625 262.523438 133.894531 C 263.011719 134.117188 263.519531 134.222656 264.023438 134.222656 C 265.375 134.222656 266.667969 133.457031 267.269531 132.148438 " fill-opacity="1" fill-rule="nonzero"/><path fill="#2f2e2e" d="M 255.113281 177.257812 C 251.3125 179.394531 247.042969 181.605469 242.421875 183.820312 C 240.640625 184.675781 239.890625 186.808594 240.742188 188.589844 C 241.355469 189.871094 242.636719 190.617188 243.96875 190.617188 C 244.488281 190.617188 245.015625 190.503906 245.511719 190.265625 C 250.277344 187.980469 254.683594 185.699219 258.617188 183.488281 C 260.339844 182.515625 260.949219 180.335938 259.980469 178.617188 C 259.011719 176.898438 256.832031 176.285156 255.113281 177.257812 " fill-opacity="1" fill-rule="nonzero"/><path fill="#2f2e2e" d="M 229.328125 189.730469 C 225.148438 191.519531 220.660156 193.351562 215.984375 195.183594 C 214.148438 195.902344 213.242188 197.976562 213.960938 199.816406 C 214.511719 201.226562 215.863281 202.085938 217.292969 202.085938 C 217.726562 202.085938 218.164062 202.007812 218.59375 201.839844 C 223.335938 199.984375 227.894531 198.121094 232.140625 196.304688 C 233.957031 195.53125 234.800781 193.429688 234.023438 191.613281 C 233.246094 189.800781 231.136719 188.953125 229.328125 189.730469 " fill-opacity="1" fill-rule="nonzero"/><path fill="#2f2e2e" d="M 190.019531 212.109375 C 190.40625 212.109375 190.804688 212.042969 191.195312 211.910156 C 195.480469 210.414062 200.105469 208.777344 204.933594 207.007812 C 206.789062 206.328125 207.738281 204.273438 207.0625 202.421875 C 206.378906 200.566406 204.320312 199.617188 202.472656 200.296875 C 197.6875 202.046875 193.09375 203.675781 188.839844 205.160156 C 186.976562 205.808594 185.988281 207.847656 186.640625 209.710938 C 187.15625 211.183594 188.539062 212.109375 190.019531 212.109375 " fill-opacity="1" fill-rule="nonzero"/><path fill="#2f2e2e" d="M 175.109375 209.898438 L 171.546875 211.132812 C 168.0625 212.351562 164.628906 213.601562 161.347656 214.832031 C 159.496094 215.53125 158.5625 217.589844 159.257812 219.4375 C 159.796875 220.875 161.160156 221.753906 162.605469 221.753906 C 163.019531 221.753906 163.449219 221.679688 163.863281 221.523438 C 167.09375 220.308594 170.472656 219.085938 173.90625 217.882812 L 177.441406 216.65625 C 179.3125 216.011719 180.300781 213.976562 179.65625 212.109375 C 179.011719 210.242188 176.96875 209.253906 175.109375 209.898438 " fill-opacity="1" fill-rule="nonzero"/><path fill="#2f2e2e" d="M 173.617188 316.757812 C 171.265625 316.152344 168.976562 315.550781 166.742188 314.945312 C 164.828125 314.421875 162.871094 315.554688 162.355469 317.460938 C 161.839844 319.367188 162.96875 321.328125 164.871094 321.847656 C 167.136719 322.457031 169.457031 323.070312 171.835938 323.683594 C 172.136719 323.757812 172.4375 323.792969 172.726562 323.792969 C 174.320312 323.792969 175.777344 322.722656 176.1875 321.109375 C 176.679688 319.195312 175.527344 317.25 173.617188 316.757812 " fill-opacity="1" fill-rule="nonzero"/></svg>