<svg xmlns="http://www.w3.org/2000/svg" xmlns:xlink="http://www.w3.org/1999/xlink" width="500" zoomAndPan="magnify" viewBox="0 0 375 374.999991" height="500" preserveAspectRatio="xMidYMid meet" version="1.0"><defs><clipPath id="508ca9c82e"><path d="M 56.683594 176.460938 L 121.4375 176.460938 L 121.4375 307.84375 L 56.683594 307.84375 Z M 56.683594 176.460938 " clip-rule="nonzero"/></clipPath><clipPath id="4ccf91fca6"><path d="M 185.152344 228.015625 L 208.847656 228.015625 L 208.847656 307.84375 L 185.152344 307.84375 Z M 185.152344 228.015625 " clip-rule="nonzero"/></clipPath><clipPath id="0b8a3ed07e"><path d="M 306.761719 228.015625 L 330.433594 228.015625 L 330.433594 307.84375 L 306.761719 307.84375 Z M 306.761719 228.015625 " clip-rule="nonzero"/></clipPath><clipPath id="d4e887209e"><path d="M 224 67.09375 L 287 67.09375 L 287 108 L 224 108 Z M 224 67.09375 " clip-rule="nonzero"/></clipPath></defs><path stroke-linecap="round" transform="matrix(0.0111429, 0, 0, -0.0111411, 56.682394, 307.844452)" fill="none" stroke-linejoin="round" d="M 4422.074841 15688.707531 C 4207.181398 16029.155255 3821.214544 16227.603671 3569.862833 16148.364551 C 3568.811152 16148.364551 3567.408911 16147.312704 3566.00667 16147.312704 C 3234.727217 16037.219413 3120.444571 15479.039417 3313.603278 14902.627411 C 3507.813665 14327.617867 3932.692709 13951.75797 4265.374402 14063.253723 C 4324.969647 14083.940042 4378.254808 14119.0016 4422.074841 14165.633471 L 4422.425401 14166.334703 L 4422.425401 14102.873283 C 4422.425401 13190.22094 4793.668724 12363.469413 5394.178461 11766.020473 C 5990.481475 11172.428304 6812.895861 10805.333796 7719.795271 10805.333796 C 8627.045241 10805.333796 9448.057386 11172.428304 10044.3604 11764.267395 C 10644.870137 12362.066951 11017.515701 13188.818478 11017.515701 14102.873283 L 11017.515701 14237.86028 L 11017.16514 14238.210896 C 11060.985174 14191.579024 11114.270334 14156.517467 11173.86558 14135.831148 C 11506.547273 14024.335395 11933.880238 14399.844676 12125.636704 14976.256682 C 12318.444851 15551.266226 12204.863324 16109.446222 11871.831071 16219.539513 C 11870.42883 16219.539513 11869.026589 16220.941975 11867.974908 16220.941975 C 11624.335522 16299.83048 11235.914747 16056.50327 11017.16514 15727.62586 " stroke="#2e2d2d" stroke-width="418.39801" stroke-opacity="1" stroke-miterlimit="10"/><path stroke-linecap="round" transform="matrix(0.013102, 0, 0, -0.0130999, 56.682394, 307.844452)" fill="none" stroke-linejoin="round" d="M 3760.844371 13342.48469 L 3760.844371 14366.16479 C 3760.844371 14526.590042 3773.962582 14683.138849 3800.497147 14834.916644 L 5300.147277 16299.915282 C 5300.147277 16299.915282 6075.0162 15114.915366 6443.220556 15129.2284 C 6812.915618 15144.734186 7090.186914 15642.410296 7090.186914 15642.410296 C 7090.186914 15642.410296 8075.841651 14325.611194 9350.395191 14685.524354 C 9362.618979 14581.456672 9369.774368 14473.810731 9369.774368 14366.16479 L 9369.774368 13374.987205 " stroke="#2e2d2d" stroke-width="355.81799" stroke-opacity="1" stroke-miterlimit="10"/><path stroke-linecap="round" transform="matrix(0.0145369, 0, 0, -0.0145346, 56.682394, 307.844452)" fill="none" stroke-linejoin="round" d="M 2736.390801 12377.863466 L 2736.390801 13119.360602 C 2736.390801 14876.485747 4160.8404 16300.084996 5917.151017 16300.084996 C 7673.192921 16300.084996 9096.836381 14876.485747 9096.836381 13119.360602 L 9096.836381 12433.227152 " stroke="#2e2d2d" stroke-width="320.70099" stroke-opacity="1" stroke-miterlimit="10"/><path stroke-linecap="round" transform="matrix(0.00868028, 0, 0, -0.00867891, 56.682394, 307.844452)" fill="none" stroke-linejoin="round" d="M 10925.584297 10826.432106 L 10925.584297 8573.305211 L 9222.73035 8573.305211 L 9222.73035 10788.624942 " stroke="#2e2d2d" stroke-width="537.086" stroke-opacity="1" stroke-miterlimit="10"/><path stroke-linecap="round" transform="matrix(0.00868028, 0, 0, -0.00867891, 56.682394, 307.844452)" fill="none" stroke-linejoin="round" d="M 9223.180364 8571.954955 L 8805.567134 4013.491273 L 10074.157323 1208.109743 L 11509.702802 4013.491273 L 10926.034311 8571.954955 " stroke="#2e2d2d" stroke-width="537.086" stroke-opacity="1" stroke-miterlimit="10"/><path stroke-linecap="round" transform="matrix(0.00868028, 0, 0, -0.00867891, 56.682394, 307.844452)" fill="none" stroke-linejoin="round" d="M 10926.93434 10826.882191 L 10924.684269 10826.882191 L 10787.879935 10914.64882 L 10785.629863 10914.64882 L 10101.608193 11359.333073 L 6898.856728 13580.953999 " stroke="#2e2d2d" stroke-width="537.086" stroke-opacity="1" stroke-miterlimit="10"/><path stroke-linecap="round" transform="matrix(0.00868028, 0, 0, -0.00867891, 56.682394, 307.844452)" fill="none" stroke-linejoin="round" d="M 9223.180364 10788.174857 L 9415.336452 10914.64882 L 9417.136509 10914.64882 L 10101.608193 11359.333073 L 12930.397811 13558.89982 " stroke="#2e2d2d" stroke-width="537.086" stroke-opacity="1" stroke-miterlimit="10"/><g clip-path="url(#508ca9c82e)"><path stroke-linecap="round" transform="matrix(0.00868028, 0, 0, -0.00867891, 56.682394, 307.844481)" fill="none" stroke-linejoin="round" d="M 276.446926 268.785067 L 276.446926 4013.944344 C 324.148437 6504.265973 -186.617744 10444.312158 2666.472643 11650.090514 C 3826.609397 12140.683425 5233.803978 12032.662967 6240.48587 12791.956766 C 6544.245494 13022.850494 6754.402151 13289.751041 6898.856728 13580.95619 C 7093.262887 13974.33069 7166.165196 14413.613883 7186.415838 14865.499463 " stroke="#2e2d2d" stroke-width="537.086" stroke-opacity="1" stroke-miterlimit="10"/></g><path stroke-linecap="round" transform="matrix(0.0100492, 0, 0, -0.0100476, 56.682394, 307.844452)" fill="none" stroke-linejoin="round" d="M 10911.323555 12838.988868 C 10928.815689 12440.494077 10993.73094 12056.772751 11169.04099 11711.928965 C 11294.206923 11468.555561 11472.626685 11244.232151 11730.34412 11049.455673 C 12598.342659 10393.591562 13815.017727 10486.897659 14817.511337 10063.521242 C 15523.804819 9764.552954 15991.816571 9271.585739 16300.066836 8669.372634 " stroke="#2e2d2d" stroke-width="463.92801" stroke-opacity="1" stroke-miterlimit="10"/><path stroke-linecap="round" transform="matrix(0.00868028, 0, 0, -0.00867891, 56.682394, 307.844452)" fill="none" stroke-linejoin="round" d="M 5683.36822 6064.079793 L 2435.61533 6064.079793 L 2435.61533 7548.911121 L 5683.36822 7548.911121 Z M 5683.36822 6064.079793 " stroke="#2e2d2d" stroke-width="537.086" stroke-opacity="1" stroke-miterlimit="10"/><g clip-path="url(#4ccf91fca6)"><path stroke-linecap="round" transform="matrix(0.00918721, 0, 0, -0.00918576, 56.682394, 307.844481)" fill="none" stroke-linejoin="round" d="M 14239.527142 253.954156 L 14239.527142 5785.614248 C 14239.527142 6966.109975 15177.482021 8065.382833 16299.966554 8428.546865 " stroke="#2e2d2d" stroke-width="507.44601" stroke-opacity="1" stroke-miterlimit="10"/></g><g clip-path="url(#0b8a3ed07e)"><path stroke-linecap="round" transform="matrix(0.0166514, 0, 0, -0.0166488, 56.682394, 307.844481)" fill="none" stroke-linejoin="round" d="M 15163.040815 4650.354208 C 15782.358805 4449.982613 16300.099261 3843.002148 16300.099261 3191.67715 L 16300.099261 140.116297 " stroke="#2e2d2d" stroke-width="279.978" stroke-opacity="1" stroke-miterlimit="10"/></g><path stroke-linecap="round" transform="matrix(0.0123347, 0, 0, -0.0123327, 56.682394, 307.844452)" fill="none" stroke-linejoin="round" d="M 14819.216072 8124.396125 L 12141.615317 6278.444897 L 13814.363654 6278.444897 L 16300.051215 3530.106051 L 14819.216072 6923.957698 Z M 14819.216072 8124.396125 " stroke="#2e2d2d" stroke-width="377.98801" stroke-opacity="1" stroke-miterlimit="10"/><path stroke-linecap="round" transform="matrix(0.01549, 0, 0, -0.0154875, 56.682394, 307.844452)" fill="none" stroke-linejoin="round" d="M 16299.948348 4999.283095 L 14967.936494 4999.283095 L 12988.832172 2810.524431 L 14168.275459 5512.801491 L 14168.275459 6483.34117 L 14173.066869 6480.06232 Z M 16299.948348 4999.283095 " stroke="#2e2d2d" stroke-width="300.96899" stroke-opacity="1" stroke-miterlimit="10"/><path stroke-linecap="round" transform="matrix(0.014852, 0, 0, -0.0148496, 56.682394, 307.844452)" fill="none" stroke-linejoin="round" d="M 10707.315968 10340.958542 L 10707.315968 11768.815032 C 10707.315968 12137.879633 10782.274505 12488.530462 10916.936859 12808.403986 C 11050.810176 13128.277511 11245.176347 13416.847623 11486.095715 13658.594143 L 11486.095715 13659.646359 C 11973.720723 14150.504909 12647.558517 14454.332146 13392.935687 14454.332146 C 13436.85876 14454.332146 13481.833882 14453.279931 13525.493942 14450.123284 C 13723.542287 14440.39029 13917.119421 14409.612986 14100.965095 14359.10664 C 14562.02585 14234.156044 14972.588222 13988.200661 15298.986623 13658.594143 C 15780.299333 13174.048887 16050.676091 12586.912615 16185.601457 11764.606169 C 16248.724436 11390.017437 16297.907756 10385.677703 16300.011856 10342.010758 C 16300.011856 10340.958542 16300.011856 10340.958542 16300.011856 10340.958542 C 16176.922048 10241.524174 15978.084666 10180.495672 15780.299333 10149.455314 C 15586.7222 10118.414956 15394.197116 10115.258309 15274.263457 10131.304596 C 14182.23593 10269.407886 13406.875345 10819.979668 12655.974914 11523.911864 " stroke="#2e2d2d" stroke-width="313.91299" stroke-opacity="1" stroke-miterlimit="10"/><path stroke-linecap="round" transform="matrix(0.0130829, 0, 0, -0.0130809, 56.682394, 307.844452)" fill="none" stroke-linejoin="round" d="M 12523.279811 11586.643806 C 12645.397541 11652.63959 12764.828084 11683.69643 12881.870016 11758.949541 C 12958.006987 11808.222412 13033.248229 11858.092529 13107.593742 11910.351634 C 13586.510218 12246.900271 14015.265866 12647.951575 14383.111938 13099.768866 C 15071.629017 13945.470498 15827.325776 15188.639952 16006.47159 16300.116462 " stroke="#2e2d2d" stroke-width="356.34601" stroke-opacity="1" stroke-miterlimit="10"/><g clip-path="url(#d4e887209e)"><path stroke-linecap="round" transform="matrix(0.0146289, 0, 0, -0.0146266, 56.682394, 307.844452)" fill="none" stroke-linejoin="round" d="M 15532.559147 13867.41926 C 15565.670034 14011.100449 15583.29357 14160.657077 15583.29357 14314.486752 C 15583.29357 15410.79025 14694.106049 16300.118056 13596.907392 16300.118056 C 12499.975759 16300.118056 11610.521214 15410.79025 11610.521214 14314.486752 C 11610.521214 14160.657077 11627.877727 14011.100449 11661.255637 13867.41926 " stroke="#2e2d2d" stroke-width="318.69699" stroke-opacity="1" stroke-miterlimit="10"/></g><path stroke-linecap="round" transform="matrix(0.0151948, 0, 0, -0.0151924, 56.682394, 307.844452)" fill="none" stroke-linejoin="round" d="M 15931.946238 10108.387066 C 15955.083218 10108.387066 15976.93481 10105.301649 15996.986859 10098.102342 C 15996.986859 10098.102342 15998.01517 10097.07387 15998.786402 10097.07387 C 16223.729263 10022.766739 16300.081296 9646.345845 16170.514209 9259.640227 C 16040.690044 8871.906136 15753.277337 8618.901929 15528.591554 8692.951941 C 15488.744533 8707.607672 15454.296141 8730.748301 15423.96099 8761.088237 " stroke="#2e2d2d" stroke-width="306.827" stroke-opacity="1" stroke-miterlimit="10"/><path stroke-linecap="round" transform="matrix(0.014378, 0, 0, -0.0143757, 56.682394, 307.844452)" fill="none" stroke-linejoin="round" d="M 16298.839596 9259.621953 L 16299.926325 9259.621953 L 16299.926325 9163.703025 C 16299.926325 8512.921628 16034.764536 7925.180433 15607.408497 7499.659069 C 15183.040963 7077.67013 14598.652635 6817.085846 13952.320775 6817.085846 C 13307.075644 6817.085846 12721.600588 7077.67013 12297.504735 7500.745969 C 11869.877014 7926.267334 11605.801954 8514.008528 11605.801954 9163.703025 L 11605.801954 9208.809377 C 11573.743459 9175.658925 11536.251321 9150.3885 11494.140586 9135.987074 C 11256.690378 9056.371646 10955.123179 9323.749055 10816.021913 9732.695194 C 10678.822422 10143.543408 10759.512024 10540.261921 10995.875503 10618.518724 C 10997.233914 10618.518724 10998.320643 10619.605624 10999.407371 10619.605624 C 11177.087504 10676.124426 11452.301533 10534.555696 11605.801954 10292.720438 " stroke="#2e2d2d" stroke-width="324.25299" stroke-opacity="1" stroke-miterlimit="10"/><path stroke-linecap="round" transform="matrix(0.014378, 0, 0, -0.0143757, 56.682394, 307.844452)" fill="none" stroke-linejoin="round" d="M 16299.926325 10483.743119 L 16299.926325 10209.30086 " stroke="#2e2d2d" stroke-width="324.25299" stroke-opacity="1" stroke-miterlimit="10"/><path stroke-linecap="round" transform="matrix(0.0152426, 0, 0, -0.0152402, 56.682394, 307.844452)" fill="none" stroke-linejoin="round" d="M 16300.025738 1429.502534 L 14450.508131 1429.502534 L 14450.508131 2275.078462 L 16300.025738 2275.078462 Z M 16300.025738 1429.502534 " stroke="#2e2d2d" stroke-width="305.85501" stroke-opacity="1" stroke-miterlimit="10"/><path stroke-linecap="round" transform="matrix(0.013464, 0, 0, -0.0134619, 56.682394, 307.844452)" fill="none" stroke-linejoin="round" d="M 16299.941577 7458.914418 L 16299.941577 7707.301351 " stroke="#2e2d2d" stroke-width="346.254" stroke-opacity="1" stroke-miterlimit="10"/><path stroke-linecap="round" transform="matrix(0.0112132, 0, 0, -0.0112114, 56.682394, 307.844452)" fill="none" stroke-linejoin="round" d="M 16299.972443 8936.264714 L 16299.972443 9195.138629 " stroke="#2e2d2d" stroke-width="415.758" stroke-opacity="1" stroke-miterlimit="10"/></svg>